inDegrees=yes
name=ik_S47_A02_T02
DataType=double
version=3
OpenSimVersion=4.3-2021-08-27-4bc7ad9
endheader
time	pelvis_tilt	pelvis_list	pelvis_rotation	pelvis_tx	pelvis_ty	pelvis_tz	hip_flexion_r	hip_adduction_r	hip_rotation_r	knee_angle_r	knee_angle_r_beta	ankle_angle_r	subtalar_angle_r	mtp_angle_r	hip_flexion_l	hip_adduction_l	hip_rotation_l	knee_angle_l	knee_angle_l_beta	ankle_angle_l	subtalar_angle_l	mtp_angle_l	lumbar_extension	lumbar_bending	lumbar_rotation	arm_flex_r	arm_add_r	arm_rot_r	elbow_flex_r	pro_sup_r	wrist_flex_r	wrist_dev_r	arm_flex_l	arm_add_l	arm_rot_l	elbow_flex_l	pro_sup_l	wrist_flex_l	wrist_dev_l
12.93999999999981	1.495715073806468	-5.375653078219445	-88.8503938494285	0	0.9399999999999999	0	16.12994980377319	-9.334609259685159	-8.667639991616234	35.59706445963811	0.6212859788653412	0	0	0	-0.4998229754412139	1.179780670387623	-7.774878899402434	11.48566908596981	0.2004627423447008	0	0	0	0	0	0	25.43860987131043	-25.43860987131036	3.806453750406805	68.92670754341052	86.19354646525576	0	0	25.43860987131043	-25.43860987131036	3.806453750406805	68.92670754341052	86.19354646503136	0	0
12.95999999999981	1.097989317878815	-5.446115708544835	-87.71904244041789	0	0.9399999999999999	0	14.87112015993283	-9.367147126247692	-9.178772515009435	36.97043850634594	0.6452558778418312	0	0	0	0.1612468510683274	1.17883550739936	-5.753957925077014	10.51350190523662	0.1834952241610758	0	0	0	0	0	0	25.44578636871308	-25.44578636871301	3.807314503720632	68.93863227621408	86.19268571198845	0	0	25.44578636871308	-25.44578636871301	3.807314503720632	68.93863227621408	86.19268571176421	0	0
12.97999999999981	1.092772771995631	-5.435598559328976	-87.70581411100034	0	0.9399999999999999	0	14.8876800511766	-9.495170631223296	-8.813450845839656	41.21771200160961	0.7193847845668699	0	0	0	0.6189320857304732	1.011987729900546	-6.024141857915351	10.0595650873772	0.1755725320934032	0	0	0	0	0	0	25.45495301085718	-25.45495301085711	3.808410749910926	68.95381480710076	86.1915894658574	0	0	25.45495301085718	-25.45495301085711	3.808410749910926	68.95381480710076	86.19158946563336	0	0
12.99999999999981	0.7518827848397109	-5.601015951068884	-86.44056457908167	0	0.9399999999999999	0	11.26791139675826	-9.073627650126666	-9.224661723506857	41.87048709729379	0.7307778592615799	0	0	0	0.6385731269841719	-0.005040188058630817	-6.546738804682715	9.884222189271945	0.1725122212014776	0	0	0	0	0	0	25.51500408961626	-25.51500408961619	3.814695209696145	69.03976437176104	86.18530500640455	0	0	25.51500408961626	-25.51500408961619	3.814695209696145	69.03976437176104	86.18530500618168	0	0
13.01999999999981	0.5509739929932499	-5.740004581727069	-86.08132576808559	0	0.9399999999999999	0	9.018568609252341	-8.866342713314335	-9.004432215607276	46.55621140307515	0.8125591762381903	0	0	0	0.842199705347901	-0.7993997190108575	-7.308600961468467	9.868450473206931	0.1722369528274534	0	0	0	0	0	0	25.63359258670954	-25.63359258670947	3.826898687339835	69.20637526103344	86.17310152940436	0	0	25.63359258670954	-25.63359258670947	3.826898687339835	69.20637526103344	86.1731015291838	0	0
13.03999999999981	0.334102852951209	-5.980157692196034	-85.88769903362996	0	0.9399999999999999	0	6.799327723168765	-8.46513664148738	-8.630142782439238	47.15428063328945	0.8229974534602978	0	0	0	0.6584555478996063	-0.9990795869943221	-7.092277807488346	9.328248153976993	0.1628086437299815	0	0	0	0	0	0	25.63797389859412	-25.63797389859405	3.827420953305666	69.21360192406755	86.1725792634667	0	0	25.63797389859412	-25.63797389859405	3.827420953305666	69.21360192406755	86.17257926324623	0	0
13.05999999999981	0.1624797279669122	-6.241664087777993	-85.7439963449177	0	0.9399999999999999	0	4.914865656234278	-8.22873720629924	-7.771453751449843	46.8049195330594	0.8168999519828936	0	0	0	1.528098745528593	-0.9975872320091397	-6.753656096306042	8.546094861937997	0.1491574935285883	0	0	0	0	0	0	25.64862658158755	-25.64862658158748	3.828610610211351	69.22995659424531	86.17138960662444	0	0	25.64862658158755	-25.64862658158748	3.828610610211351	69.22995659424531	86.17138960640425	0	0
13.07999999999981	0.1134580289345293	-6.402719425646943	-85.66722348105056	0	0.9399999999999999	0	3.24563351866151	-8.147856799089015	-6.566267347930668	47.08699088698241	0.8218230258344082	0	0	0	1.765466242380292	-1.487889047279794	-7.815812808362937	8.417524729772722	0.14691352140258	0	0	0	0	0	0	25.65343268489723	-25.65343268489716	3.829184080350581	69.23789184092927	86.17081613651614	0	0	25.65343268489723	-25.65343268489716	3.829184080350581	69.23789184092927	86.17081613629604	0	0
13.09999999999981	-0.01053622395035046	-6.642226546465086	-85.55385086069062	0	0.9399999999999999	0	1.642413841139871	-7.834894700388676	-5.263047542808676	47.03928609676396	0.820990420176123	0	0	0	1.971030462168084	-2.056839383651409	-8.649319074694683	9.043361082315871	0.1578364263331299	0	0	0	0	0	0	25.65744880876148	-25.65744880876142	3.829664251673855	69.24453731469714	86.17033596521875	0	0	25.65744880876148	-25.65744880876142	3.829664251673855	69.24453731469714	86.17033596499877	0	0
13.11999999999981	-0.1096060730265659	-6.856449398090125	-85.44872139414049	0	0.9399999999999999	0	0.1646579590275961	-7.242970717319597	-4.038032066157397	46.30278588744256	0.8081360665818372	0	0	0	2.477982165807656	-2.196071008669347	-8.89498492149183	8.819311069607943	0.1539260159222414	0	0	0	0	0	0	25.66667664479567	-25.6666766447956	3.830766385683727	69.25978851821449	86.16923383126834	0	0	25.66667664479567	-25.6666766447956	3.830766385683727	69.25978851821449	86.1692338310486	0	0
13.13999999999981	-0.268949666934693	-7.001194012322159	-85.40834290507793	0	0.9399999999999999	0	-1.32663337517494	-6.357048441682102	-3.407927463513839	44.7554075024731	0.7811292189899277	0	0	0	3.121784585165688	-2.442390695693307	-9.180778866403754	9.636118789980678	0.1681819999984548	0	0	0	0	0	0	25.67418369756277	-25.6741836975627	3.831661880256417	69.27217847204805	86.16833833674396	0	0	25.67418369756277	-25.6741836975627	3.831661880256417	69.27217847204805	86.16833833652439	0	0
13.15999999999981	-0.4747384969553954	-6.986966859179158	-85.37332094987683	0	0.9399999999999999	0	-1.272788201958654	-6.163996003243335	-3.480427341964285	44.51503762719054	0.7769339732436391	0	0	0	3.968868435641311	-2.968881344736257	-9.622888573349517	9.381924531839148	0.1637454732542207	0	0	0	0	0	0	25.67805552977732	-25.67805552977725	3.832122838345523	69.27855497348675	86.16787737867972	0	0	25.67805552977732	-25.67805552977725	3.832122838345523	69.27855497348675	86.1678773784602	0	0
13.17999999999981	-0.5696496506912473	-6.929646768890171	-85.35553886702235	0	0.9399999999999999	0	-2.446653908419891	-5.499467106322292	-3.165038321042929	41.61741589354791	0.7263609335142289	0	0	0	4.883251094890437	-3.295376411864154	-10.02343731232206	9.200556816993659	0.1605800094733487	0	0	0	0	0	0	25.68638907610366	-25.68638907610359	3.833115004664963	69.2922793952667	86.16688521241373	0	0	25.68638907610366	-25.68638907610359	3.833115004664963	69.2922793952667	86.16688521219442	0	0
13.19999999999981	-0.8811875425582375	-6.67375627157988	-85.46296689368684	0	0.9399999999999999	0	-2.201296312851507	-5.244010513607951	-3.435456982152072	39.15580901983014	0.6833977886781296	0	0	0	6.060011662578963	-3.703724634278703	-10.16365320386028	8.979166534488566	0.1567160201117145	0	0	0	0	0	0	25.69431645448188	-25.69431645448181	3.834057475555383	69.3053144832123	86.16594274157409	0	0	25.69431645448188	-25.69431645448181	3.834057475555383	69.3053144832123	86.16594274135501	0	0
13.21999999999981	-1.235324938383535	-6.306860331640942	-85.67591251850591	0	0.9399999999999999	0	-4.571913759458816	-3.726768600946267	-3.568983707348163	33.00139869983057	0.5759830650754193	0	0	0	7.35594699919268	-4.313716889018788	-10.35566033353963	9.216225600175742	0.1608534813296572	0	0	0	0	0	0	25.7033622590653	-25.70336225906523	3.835127991209174	69.32011416967988	86.16487222597786	0	0	25.7033622590653	-25.70336225906523	3.835127991209174	69.32011416967988	86.16487222575897	0	0
13.23999999999981	-2.084014775925632	-5.873467316716191	-86.26115774296196	0	0.9399999999999999	0	-6.923252552798569	-2.6333535651008	-6.173159276809764	28.58642834560314	0.4989272960162102	0	0	0	7.821381579815462	-5.256303444169395	-10.63375154078982	8.188211560267828	0.1429112515765357	0	0	0	0	0	0	25.72305151619027	-25.7230515161902	3.83729957585435	69.34994997158437	86.16270064144847	0	0	25.72305151619027	-25.7230515161902	3.83729957585435	69.34994997158437	86.16270064122996	0	0
13.25999999999981	-2.825460775885152	-5.704749459508443	-86.61320239356762	0	0.9399999999999999	0	-6.372240463911796	-0.9632901466200827	-3.001912093023828	24.59022301601406	0.4291803554291357	0	0	0	9.636718735406639	-6.321750198742732	-10.56697073217146	8.310180870818808	0.1450400176320378	0	0	0	0	0	0	25.76204288548094	-25.76204288548087	3.841376731934674	69.40569025565051	86.15862348558363	0	0	25.76204288548094	-25.76204288548087	3.841376731934674	69.40569025565051	86.15862348536591	0	0
13.27999999999981	-3.652801696947801	-5.255083963235541	-86.9221719143863	0	0.9399999999999999	0	-6.988398582754097	0.8330437930460911	-3.453160455082278	19.78746351461834	0.3453563889483391	0	0	0	11.02744190557312	-7.506230785318299	-9.850659333191123	8.098935714392219	0.1413530941235033	0	0	0	0	0	0	25.77963886272745	-25.77963886272739	3.843465856507553	69.43457206882955	86.15653436112333	0	0	25.77963886272745	-25.77963886272739	3.843465856507553	69.43457206882955	86.15653436090605	0	0
13.29999999999981	-4.415034475573995	-4.762640630455738	-87.37630379695584	0	0.9399999999999999	0	-7.30397437188372	1.250647679439074	-5.261524327404159	18.17076411139474	0.3171396613470598	0	0	0	12.51842138652666	-8.699059130998355	-9.120822582659828	6.321386766902727	0.1103290123744519	0	0	0	0	0	0	25.79299799787081	-25.79299799787075	3.845017246083417	69.4559771306005	86.1549829716308	0	0	25.79299799787081	-25.79299799787075	3.845017246083417	69.4559771306005	86.15498297141379	0	0
13.3199999999998	-4.717881196772819	-4.540544280552319	-87.52012335687633	0	0.9399999999999999	0	-6.668881748241537	2.29358279741575	-3.656440722701077	16.16104987657768	0.2820635309253037	0	0	0	13.66248375291325	-9.296566230171967	-8.636965079566281	5.237862012403375	0.09141793788157496	0	0	0	0	0	0	25.80054740843126	-25.80054740843119	3.845912579293865	69.46835253907336	86.15408763846858	0	0	25.80054740843126	-25.80054740843119	3.845912579293865	69.46835253907336	86.15408763825172	0	0
13.3399999999998	-5.077500933160226	-4.331878681264902	-87.75297643124918	0	0.9399999999999999	0	-6.495666953389435	3.485609428259786	-2.223821996674183	13.801542473754	0.2408823580208505	0	0	0	14.48818179924558	-10.10750934426172	-8.753564242294374	4.769518740781986	0.0832438057622196	0	0	0	0	0	0	25.80600374959271	-25.80600374959264	3.846560253949453	69.47730531623101	86.15343996384789	0	0	25.80600374959271	-25.80600374959264	3.846560253949453	69.47730531623101	86.15343996363121	0	0
13.3599999999998	-5.2635600266971	-4.449713900430238	-88.05982523852595	0	0.9399999999999999	0	-7.116207061839451	3.556105278066135	-2.990891661986561	11.49193786127656	0.2005721531138714	0	0	0	14.86702841334936	-10.6377221681744	-8.763702784613479	5.277702031318579	0.09211327738570207	0	0	0	0	0	0	25.81054718133059	-25.81054718133053	3.847099449877972	69.48475827922462	86.1529007679484	0	0	25.81054718133059	-25.81054718133053	3.847099449877972	69.48475827922462	86.15290076773186	0	0
